<?xml version="1.0" encoding="UTF-8" standalone="no"?>
<!DOCTYPE svg PUBLIC "-//W3C//DTD SVG 1.1//EN" "http://www.w3.org/Graphics/SVG/1.1/DTD/svg11.dtd">
<svg width="100%" height="100%" viewBox="0 0 30 40" version="1.1" xmlns="http://www.w3.org/2000/svg" xmlns:xlink="http://www.w3.org/1999/xlink" xml:space="preserve" xmlns:serif="http://www.serif.com/" style="fill-rule:evenodd;clip-rule:evenodd;stroke-linejoin:round;stroke-miterlimit:2;">
    <g transform="matrix(0.986249,0.00193207,-0.00159169,0.812498,0.312666,5.832)">
        <path d="M29.109,2.584C29.109,1.899 28.651,1.344 28.087,1.344L1.758,1.344C1.194,1.344 0.736,1.899 0.736,2.584C0.736,3.269 1.194,3.824 1.758,3.824L28.087,3.824C28.651,3.824 29.109,3.269 29.109,2.584Z"/>
    </g>
    <path d="M11.998,2.578L1.85,2.558C1.293,2.557 0.841,3.008 0.84,3.564C0.839,4.12 1.289,4.573 1.846,4.574L28.202,4.625C28.758,4.626 29.211,4.176 29.212,3.62C29.213,3.063 28.762,2.611 28.206,2.61L18.054,2.59C18.054,2.585 18.054,2.581 18.054,2.576C18.055,2.02 17.604,1.568 17.048,1.567L13.007,1.559C12.451,1.558 11.999,2.008 11.998,2.565C11.998,2.569 11.998,2.574 11.998,2.578Z"/>
    <g>
        <g transform="matrix(0.0622149,0.730545,-0.80957,0.0689448,9.46625,12.3079)">
            <path d="M29.109,2.584C29.109,1.899 28.493,1.344 27.734,1.344L2.111,1.344C1.352,1.344 0.736,1.899 0.736,2.584C0.736,3.269 1.352,3.824 2.111,3.824L27.734,3.824C28.493,3.824 29.109,3.269 29.109,2.584Z"/>
        </g>
        <g transform="matrix(5.55112e-17,-0.733189,0.8125,8.32667e-17,12.7796,34.2558)">
            <path d="M29.109,2.584C29.109,1.899 28.493,1.344 27.734,1.344L2.111,1.344C1.352,1.344 0.736,1.899 0.736,2.584C0.736,3.269 1.352,3.824 2.111,3.824L27.734,3.824C28.493,3.824 29.109,3.269 29.109,2.584Z"/>
        </g>
        <g transform="matrix(-0.0622149,0.730545,0.80957,0.0689448,20.1351,12.3079)">
            <path d="M29.109,2.584C29.109,1.899 28.493,1.344 27.734,1.344L2.111,1.344C1.352,1.344 0.736,1.899 0.736,2.584C0.736,3.269 1.352,3.824 2.111,3.824L27.734,3.824C28.493,3.824 29.109,3.269 29.109,2.584Z"/>
        </g>
    </g>
    <g transform="matrix(1,0,0,1,0.0745213,0)">
        <path d="M24.394,37.778L26.931,7.993C26.978,7.439 27.466,7.027 28.02,7.074C28.574,7.122 28.986,7.61 28.939,8.164L26.331,38.782C26.327,38.833 26.319,38.883 26.307,38.931C26.237,39.418 25.817,39.793 25.31,39.793L4.742,39.793C4.565,39.793 4.399,39.748 4.255,39.668C3.86,39.558 3.556,39.213 3.52,38.782L0.912,8.164C0.865,7.61 1.277,7.122 1.831,7.074C2.385,7.027 2.873,7.439 2.92,7.993L5.457,37.778L24.394,37.778Z"/>
    </g>
</svg>
