<?xml version="1.0" encoding="UTF-8" standalone="no"?>
<!DOCTYPE svg PUBLIC "-//W3C//DTD SVG 1.1//EN" "http://www.w3.org/Graphics/SVG/1.1/DTD/svg11.dtd">
<svg width="100%" height="100%" viewBox="0 0 500 100" version="1.1" xmlns="http://www.w3.org/2000/svg" xmlns:xlink="http://www.w3.org/1999/xlink" xml:space="preserve" xmlns:serif="http://www.serif.com/" style="fill-rule:evenodd;clip-rule:evenodd;stroke-linejoin:round;stroke-miterlimit:2;">
    <rect id="ArtBoard2" x="0" y="0" width="500" height="100" style="fill:none;"/>
    <clipPath id="_clip1">
        <rect id="ArtBoard21" serif:id="ArtBoard2" x="0" y="0" width="500" height="100"/>
    </clipPath>
    <g clip-path="url(#_clip1)">
        <g transform="matrix(1,0,0,1.00102,0.507099,0.203046)">
            <rect x="-0.507" y="-0.203" width="250" height="99.899"/>
        </g>
        <g transform="matrix(1.29887,0,0,1.29887,-135.327,12.7979)">
            <path d="M132.807,8.909C134.809,8.909 136.522,9.617 137.946,11.033C139.37,12.449 140.082,14.158 140.082,16.16C140.082,18.178 139.049,20.058 136.981,21.8C138.804,22.174 140.522,23.248 142.133,25.022C144.737,27.643 146.039,30.809 146.039,34.519C146.039,38.214 144.737,41.412 142.133,44.114C139.708,46.621 136.811,47.898 133.441,47.947L133.441,47.972L125.873,47.972L125.873,8.909L132.807,8.909ZM128.07,23.435L128.07,45.774L133.441,45.774L133.441,45.799C136.16,45.62 138.503,44.505 140.473,42.454C142.637,40.224 143.72,37.579 143.72,34.519C143.72,31.46 142.637,28.847 140.473,26.683C138.308,24.518 135.696,23.435 132.636,23.435L128.07,23.435ZM128.07,11.106L128.07,21.092L133.368,21.092C134.589,20.978 135.631,20.522 136.493,19.725C137.486,18.813 137.982,17.625 137.982,16.16C137.982,14.695 137.486,13.487 136.493,12.535C135.5,11.582 134.272,11.106 132.807,11.106L128.07,11.106Z" style="fill:white;fill-rule:nonzero;"/>
            <clipPath id="_clip2">
                <path d="M132.807,8.909C134.809,8.909 136.522,9.617 137.946,11.033C139.37,12.449 140.082,14.158 140.082,16.16C140.082,18.178 139.049,20.058 136.981,21.8C138.804,22.174 140.522,23.248 142.133,25.022C144.737,27.643 146.039,30.809 146.039,34.519C146.039,38.214 144.737,41.412 142.133,44.114C139.708,46.621 136.811,47.898 133.441,47.947L133.441,47.972L125.873,47.972L125.873,8.909L132.807,8.909ZM128.07,23.435L128.07,45.774L133.441,45.774L133.441,45.799C136.16,45.62 138.503,44.505 140.473,42.454C142.637,40.224 143.72,37.579 143.72,34.519C143.72,31.46 142.637,28.847 140.473,26.683C138.308,24.518 135.696,23.435 132.636,23.435L128.07,23.435ZM128.07,11.106L128.07,21.092L133.368,21.092C134.589,20.978 135.631,20.522 136.493,19.725C137.486,18.813 137.982,17.625 137.982,16.16C137.982,14.695 137.486,13.487 136.493,12.535C135.5,11.582 134.272,11.106 132.807,11.106L128.07,11.106Z" clip-rule="nonzero"/>
            </clipPath>
            <g clip-path="url(#_clip2)">
                <g transform="matrix(0.769899,0,0,0.77068,297.053,-9.69676)">
                    <rect x="-0.507" y="-0.203" width="250" height="99.899"/>
                </g>
            </g>
            <path d="M151.898,47.972L151.898,8.909L154.096,8.909L154.096,45.774L169.232,45.774L169.232,47.972L151.898,47.972Z" style="fill:white;fill-rule:nonzero;"/>
            <clipPath id="_clip3">
                <path d="M151.898,47.972L151.898,8.909L154.096,8.909L154.096,45.774L169.232,45.774L169.232,47.972L151.898,47.972Z" clip-rule="nonzero"/>
            </clipPath>
            <g clip-path="url(#_clip3)">
                <g transform="matrix(0.769899,0,0,0.77068,297.053,-9.69676)">
                    <rect x="-0.507" y="-0.203" width="250" height="99.899"/>
                </g>
            </g>
            <path d="M193.158,30.809L187.201,14.427L181.244,30.809L193.158,30.809ZM193.964,33.006L180.438,33.006L174.994,47.972L172.65,47.972L187.201,8.006L201.728,47.972L199.408,47.972L193.964,33.006Z" style="fill:white;fill-rule:nonzero;"/>
            <clipPath id="_clip4">
                <path d="M193.158,30.809L187.201,14.427L181.244,30.809L193.158,30.809ZM193.964,33.006L180.438,33.006L174.994,47.972L172.65,47.972L187.201,8.006L201.728,47.972L199.408,47.972L193.964,33.006Z" clip-rule="nonzero"/>
            </clipPath>
            <g clip-path="url(#_clip4)">
                <g transform="matrix(0.769899,0,0,0.77068,297.053,-9.69676)">
                    <rect x="-0.507" y="-0.203" width="250" height="99.899"/>
                </g>
            </g>
            <path d="M236.811,41.746L238.471,43.235C234.662,46.702 230.178,48.435 225.019,48.435C219.485,48.435 214.769,46.486 210.871,42.588C206.973,38.69 205.023,33.974 205.023,28.44C205.023,22.923 206.973,18.211 210.871,14.305C214.769,10.398 219.485,8.445 225.019,8.445C230.178,8.445 234.662,10.179 238.471,13.645L236.811,15.159C233.458,12.181 229.527,10.691 225.019,10.691C220.119,10.691 215.937,12.425 212.47,15.892C209.003,19.358 207.27,23.541 207.27,28.44C207.27,33.356 209.003,37.547 212.47,41.014C215.937,44.48 220.119,46.214 225.019,46.214C229.527,46.214 233.458,44.725 236.811,41.746Z" style="fill:white;fill-rule:nonzero;"/>
            <clipPath id="_clip5">
                <path d="M236.811,41.746L238.471,43.235C234.662,46.702 230.178,48.435 225.019,48.435C219.485,48.435 214.769,46.486 210.871,42.588C206.973,38.69 205.023,33.974 205.023,28.44C205.023,22.923 206.973,18.211 210.871,14.305C214.769,10.398 219.485,8.445 225.019,8.445C230.178,8.445 234.662,10.179 238.471,13.645L236.811,15.159C233.458,12.181 229.527,10.691 225.019,10.691C220.119,10.691 215.937,12.425 212.47,15.892C209.003,19.358 207.27,23.541 207.27,28.44C207.27,33.356 209.003,37.547 212.47,41.014C215.937,44.48 220.119,46.214 225.019,46.214C229.527,46.214 233.458,44.725 236.811,41.746Z" clip-rule="nonzero"/>
            </clipPath>
            <g clip-path="url(#_clip5)">
                <g transform="matrix(0.769899,0,0,0.77068,297.053,-9.69676)">
                    <rect x="-0.507" y="-0.203" width="250" height="99.899"/>
                </g>
            </g>
            <path d="M246.772,29.051L246.772,47.972L244.574,47.972L244.574,8.909L246.772,8.909L246.772,25.535L259.247,8.909L262.079,8.909L250.36,24.632L265.497,47.972L262.787,47.972L248.92,26.39L246.772,29.051Z" style="fill:white;fill-rule:nonzero;"/>
            <clipPath id="_clip6">
                <path d="M246.772,29.051L246.772,47.972L244.574,47.972L244.574,8.909L246.772,8.909L246.772,25.535L259.247,8.909L262.079,8.909L250.36,24.632L265.497,47.972L262.787,47.972L248.92,26.39L246.772,29.051Z" clip-rule="nonzero"/>
            </clipPath>
            <g clip-path="url(#_clip6)">
                <g transform="matrix(0.769899,0,0,0.77068,297.053,-9.69676)">
                    <rect x="-0.507" y="-0.203" width="250" height="99.899"/>
                </g>
            </g>
            <path d="M307.318,39.891C307.107,39.809 306.903,39.712 306.708,39.598C305.927,39.158 304.95,38.328 303.778,37.107C302.997,36.391 302.444,35.944 302.118,35.765C301.76,35.569 301.402,35.472 301.044,35.472C300.832,35.472 300.629,35.496 300.434,35.545C299.848,35.708 299.408,36.049 299.115,36.57C298.904,36.928 298.798,37.286 298.798,37.644C298.798,37.84 298.83,38.043 298.896,38.255C299.058,38.841 299.376,39.264 299.848,39.524C300.157,39.687 300.58,39.768 301.117,39.768C301.41,39.768 301.744,39.744 302.118,39.695L301.898,41.697C301.492,41.811 301.085,41.868 300.678,41.868C300.027,41.868 299.392,41.697 298.773,41.355C297.797,40.818 297.154,39.972 296.845,38.816C296.731,38.409 296.674,38.019 296.674,37.644C296.674,36.928 296.869,36.228 297.26,35.545C297.862,34.503 298.733,33.828 299.872,33.518C300.279,33.405 300.678,33.348 301.068,33.348C301.785,33.348 302.476,33.543 303.144,33.934C303.795,34.292 304.641,35.016 305.683,36.106C306.627,36.969 307.318,37.522 307.758,37.767C308.246,38.043 308.751,38.182 309.272,38.182C309.564,38.182 309.857,38.141 310.15,38.059C310.997,37.832 311.64,37.335 312.079,36.57C312.356,36.066 312.494,35.553 312.494,35.032C312.494,34.755 312.453,34.471 312.372,34.178C312.144,33.348 311.656,32.713 310.907,32.273C310.452,32.013 309.939,31.883 309.369,31.883C308.962,31.883 308.523,31.948 308.051,32.078L308.026,29.905C308.482,29.775 308.938,29.71 309.394,29.71C310.256,29.71 311.103,29.946 311.933,30.418C313.202,31.134 314.032,32.2 314.423,33.616C314.553,34.104 314.618,34.576 314.618,35.032C314.618,35.927 314.382,36.782 313.91,37.596C313.194,38.865 312.12,39.695 310.688,40.086C310.264,40.2 309.857,40.265 309.467,40.281C308.93,42.039 307.961,43.618 306.562,45.018C304.299,47.296 301.573,48.435 298.383,48.435C295.193,48.435 292.466,47.304 290.204,45.042C287.942,42.78 286.811,40.045 286.811,36.839C286.811,33.649 287.925,30.865 290.155,28.489C291.685,26.845 293.671,25.616 296.112,24.803C294.94,24.298 293.74,23.391 292.511,22.08C291.282,20.77 290.668,18.968 290.668,16.673C290.668,14.427 291.474,12.494 293.085,10.874C294.696,9.255 296.649,8.445 298.944,8.445C301.223,8.445 303.176,9.251 304.804,10.862C305.699,11.725 306.317,12.693 306.659,13.768L304.682,14.549C304.389,13.751 303.909,13.019 303.241,12.351C302.053,11.18 300.621,10.594 298.944,10.594C297.268,10.594 295.836,11.184 294.647,12.364C293.459,13.544 292.865,14.98 292.865,16.673C292.865,18.349 293.439,19.798 294.586,21.018C295.734,22.239 296.796,23.037 297.772,23.411C298.749,23.785 299.97,23.981 301.435,23.997L301.435,26.048L299.677,26.097C296.112,26.764 293.435,28.074 291.645,30.027C289.854,31.98 288.959,34.251 288.959,36.839C288.959,39.443 289.879,41.665 291.718,43.504C293.557,45.343 295.779,46.263 298.383,46.263C300.971,46.263 303.184,45.343 305.023,43.504C306.098,42.43 306.863,41.225 307.318,39.891Z" style="fill:white;fill-rule:nonzero;"/>
            <clipPath id="_clip7">
                <path d="M307.318,39.891C307.107,39.809 306.903,39.712 306.708,39.598C305.927,39.158 304.95,38.328 303.778,37.107C302.997,36.391 302.444,35.944 302.118,35.765C301.76,35.569 301.402,35.472 301.044,35.472C300.832,35.472 300.629,35.496 300.434,35.545C299.848,35.708 299.408,36.049 299.115,36.57C298.904,36.928 298.798,37.286 298.798,37.644C298.798,37.84 298.83,38.043 298.896,38.255C299.058,38.841 299.376,39.264 299.848,39.524C300.157,39.687 300.58,39.768 301.117,39.768C301.41,39.768 301.744,39.744 302.118,39.695L301.898,41.697C301.492,41.811 301.085,41.868 300.678,41.868C300.027,41.868 299.392,41.697 298.773,41.355C297.797,40.818 297.154,39.972 296.845,38.816C296.731,38.409 296.674,38.019 296.674,37.644C296.674,36.928 296.869,36.228 297.26,35.545C297.862,34.503 298.733,33.828 299.872,33.518C300.279,33.405 300.678,33.348 301.068,33.348C301.785,33.348 302.476,33.543 303.144,33.934C303.795,34.292 304.641,35.016 305.683,36.106C306.627,36.969 307.318,37.522 307.758,37.767C308.246,38.043 308.751,38.182 309.272,38.182C309.564,38.182 309.857,38.141 310.15,38.059C310.997,37.832 311.64,37.335 312.079,36.57C312.356,36.066 312.494,35.553 312.494,35.032C312.494,34.755 312.453,34.471 312.372,34.178C312.144,33.348 311.656,32.713 310.907,32.273C310.452,32.013 309.939,31.883 309.369,31.883C308.962,31.883 308.523,31.948 308.051,32.078L308.026,29.905C308.482,29.775 308.938,29.71 309.394,29.71C310.256,29.71 311.103,29.946 311.933,30.418C313.202,31.134 314.032,32.2 314.423,33.616C314.553,34.104 314.618,34.576 314.618,35.032C314.618,35.927 314.382,36.782 313.91,37.596C313.194,38.865 312.12,39.695 310.688,40.086C310.264,40.2 309.857,40.265 309.467,40.281C308.93,42.039 307.961,43.618 306.562,45.018C304.299,47.296 301.573,48.435 298.383,48.435C295.193,48.435 292.466,47.304 290.204,45.042C287.942,42.78 286.811,40.045 286.811,36.839C286.811,33.649 287.925,30.865 290.155,28.489C291.685,26.845 293.671,25.616 296.112,24.803C294.94,24.298 293.74,23.391 292.511,22.08C291.282,20.77 290.668,18.968 290.668,16.673C290.668,14.427 291.474,12.494 293.085,10.874C294.696,9.255 296.649,8.445 298.944,8.445C301.223,8.445 303.176,9.251 304.804,10.862C305.699,11.725 306.317,12.693 306.659,13.768L304.682,14.549C304.389,13.751 303.909,13.019 303.241,12.351C302.053,11.18 300.621,10.594 298.944,10.594C297.268,10.594 295.836,11.184 294.647,12.364C293.459,13.544 292.865,14.98 292.865,16.673C292.865,18.349 293.439,19.798 294.586,21.018C295.734,22.239 296.796,23.037 297.772,23.411C298.749,23.785 299.97,23.981 301.435,23.997L301.435,26.048L299.677,26.097C296.112,26.764 293.435,28.074 291.645,30.027C289.854,31.98 288.959,34.251 288.959,36.839C288.959,39.443 289.879,41.665 291.718,43.504C293.557,45.343 295.779,46.263 298.383,46.263C300.971,46.263 303.184,45.343 305.023,43.504C306.098,42.43 306.863,41.225 307.318,39.891Z" clip-rule="nonzero"/>
            </clipPath>
            <g clip-path="url(#_clip7)">
                <g transform="matrix(0.769899,0,0,0.77068,297.053,-9.69676)">
                    <rect x="-0.507" y="-0.203" width="250" height="99.899"/>
                </g>
            </g>
            <path d="M352.802,42.112L352.802,8.909L354.999,8.909L354.999,42.112C355.373,42.812 355.837,43.439 356.391,43.992C357.855,45.408 359.597,46.116 361.615,46.116C363.633,46.116 365.379,45.396 366.852,43.955C368.325,42.515 369.062,40.778 369.062,38.743L369.062,8.909L371.259,8.909L371.259,38.938C371.21,41.477 370.274,43.658 368.451,45.481C366.563,47.369 364.285,48.313 361.615,48.313C358.962,48.313 356.692,47.378 354.804,45.506C354.462,45.18 354.161,44.847 353.9,44.505C353.64,44.847 353.339,45.18 352.997,45.506C351.109,47.378 348.839,48.313 346.186,48.313C343.516,48.313 341.246,47.369 339.374,45.481C337.535,43.658 336.591,41.477 336.542,38.938L336.542,8.909L338.739,8.909L338.739,38.743C338.739,40.778 339.476,42.515 340.949,43.955C342.422,45.396 344.167,46.116 346.186,46.116C348.204,46.116 349.945,45.408 351.41,43.992C351.964,43.439 352.427,42.812 352.802,42.112Z" style="fill-rule:nonzero;"/>
            <clipPath id="_clip8">
                <path d="M352.802,42.112L352.802,8.909L354.999,8.909L354.999,42.112C355.373,42.812 355.837,43.439 356.391,43.992C357.855,45.408 359.597,46.116 361.615,46.116C363.633,46.116 365.379,45.396 366.852,43.955C368.325,42.515 369.062,40.778 369.062,38.743L369.062,8.909L371.259,8.909L371.259,38.938C371.21,41.477 370.274,43.658 368.451,45.481C366.563,47.369 364.285,48.313 361.615,48.313C358.962,48.313 356.692,47.378 354.804,45.506C354.462,45.18 354.161,44.847 353.9,44.505C353.64,44.847 353.339,45.18 352.997,45.506C351.109,47.378 348.839,48.313 346.186,48.313C343.516,48.313 341.246,47.369 339.374,45.481C337.535,43.658 336.591,41.477 336.542,38.938L336.542,8.909L338.739,8.909L338.739,38.743C338.739,40.778 339.476,42.515 340.949,43.955C342.422,45.396 344.167,46.116 346.186,46.116C348.204,46.116 349.945,45.408 351.41,43.992C351.964,43.439 352.427,42.812 352.802,42.112Z" clip-rule="nonzero"/>
            </clipPath>
            <g clip-path="url(#_clip8)">
                <g transform="matrix(0.769899,0,0,0.77068,297.053,-9.69676)">
                    <rect x="-0.507" y="-0.203" width="250" height="99.899"/>
                </g>
            </g>
            <path d="M380.17,30.467L380.17,47.972L377.973,47.972L377.973,8.909L380.17,8.909L380.17,28.269L396.527,28.269L396.527,8.909L398.725,8.909L398.725,47.972L396.527,47.972L396.527,30.467L380.17,30.467Z" style="fill-rule:nonzero;"/>
            <clipPath id="_clip9">
                <path d="M380.17,30.467L380.17,47.972L377.973,47.972L377.973,8.909L380.17,8.909L380.17,28.269L396.527,28.269L396.527,8.909L398.725,8.909L398.725,47.972L396.527,47.972L396.527,30.467L380.17,30.467Z" clip-rule="nonzero"/>
            </clipPath>
            <g clip-path="url(#_clip9)">
                <g transform="matrix(0.769899,0,0,0.77068,297.053,-9.69676)">
                    <rect x="-0.507" y="-0.203" width="250" height="99.899"/>
                </g>
            </g>
            <rect x="406.537" y="8.909" width="2.197" height="39.063" style="fill-rule:nonzero;"/>
            <clipPath id="_clip10">
                <rect x="406.537" y="8.909" width="2.197" height="39.063" clip-rule="nonzero"/>
            </clipPath>
            <g clip-path="url(#_clip10)">
                <g transform="matrix(0.769899,0,0,0.77068,297.053,-9.69676)">
                    <rect x="-0.507" y="-0.203" width="250" height="99.899"/>
                </g>
            </g>
            <path d="M426.19,11.106L426.19,47.972L423.993,47.972L423.993,11.106L414.105,11.106L414.105,8.909L436.078,8.909L436.078,11.106L426.19,11.106Z" style="fill-rule:nonzero;"/>
            <clipPath id="_clip11">
                <path d="M426.19,11.106L426.19,47.972L423.993,47.972L423.993,11.106L414.105,11.106L414.105,8.909L436.078,8.909L436.078,11.106L426.19,11.106Z" clip-rule="nonzero"/>
            </clipPath>
            <g clip-path="url(#_clip11)">
                <g transform="matrix(0.769899,0,0,0.77068,297.053,-9.69676)">
                    <rect x="-0.507" y="-0.203" width="250" height="99.899"/>
                </g>
            </g>
            <path d="M460.492,8.909L460.492,11.106L443.158,11.106L443.158,27.342L460.492,27.342L460.492,29.539L443.158,29.539L443.158,45.774L460.492,45.774L460.492,47.972L440.961,47.972L440.961,8.909L460.492,8.909Z" style="fill-rule:nonzero;"/>
            <clipPath id="_clip12">
                <path d="M460.492,8.909L460.492,11.106L443.158,11.106L443.158,27.342L460.492,27.342L460.492,29.539L443.158,29.539L443.158,45.774L460.492,45.774L460.492,47.972L440.961,47.972L440.961,8.909L460.492,8.909Z" clip-rule="nonzero"/>
            </clipPath>
            <g clip-path="url(#_clip12)">
                <g transform="matrix(0.769899,0,0,0.77068,297.053,-9.69676)">
                    <rect x="-0.507" y="-0.203" width="250" height="99.899"/>
                </g>
            </g>
        </g>
    </g>
</svg>
